<mxfile host="app.diagrams.net" agent="Mozilla/5.0 (Windows NT 10.0; Win64; x64) AppleWebKit/537.36 (KHTML, like Gecko) Chrome/131.0.0.0 Safari/537.36" version="25.0.1">
  <diagram name="PÃ¡gina-1" id="JJ_f0pKxYq7e6YW8xC4n">
    <mxGraphModel dx="1434" dy="738" grid="1" gridSize="10" guides="1" tooltips="1" connect="1" arrows="1" fold="1" page="1" pageScale="1" pageWidth="827" pageHeight="1169" math="0" shadow="0">
      <root>
        <mxCell id="0" />
        <mxCell id="1" parent="0" />
        <mxCell id="HVHrqrAjkbtWfn5iuY1D-3" value="" style="edgeStyle=orthogonalEdgeStyle;rounded=0;orthogonalLoop=1;jettySize=auto;html=1;" edge="1" parent="1" source="HVHrqrAjkbtWfn5iuY1D-1" target="HVHrqrAjkbtWfn5iuY1D-2">
          <mxGeometry relative="1" as="geometry" />
        </mxCell>
        <mxCell id="HVHrqrAjkbtWfn5iuY1D-1" value="Inicio" style="ellipse;whiteSpace=wrap;html=1;aspect=fixed;" vertex="1" parent="1">
          <mxGeometry x="360" y="180" width="80" height="80" as="geometry" />
        </mxCell>
        <mxCell id="HVHrqrAjkbtWfn5iuY1D-6" value="" style="edgeStyle=orthogonalEdgeStyle;rounded=0;orthogonalLoop=1;jettySize=auto;html=1;" edge="1" parent="1" source="HVHrqrAjkbtWfn5iuY1D-2" target="HVHrqrAjkbtWfn5iuY1D-5">
          <mxGeometry relative="1" as="geometry" />
        </mxCell>
        <mxCell id="HVHrqrAjkbtWfn5iuY1D-2" value="Mostrar mensaje: &quot;Por favor,&amp;nbsp;&lt;div&gt;ingrese una palabra: &quot;&lt;/div&gt;" style="shape=parallelogram;perimeter=parallelogramPerimeter;whiteSpace=wrap;html=1;fixedSize=1;rounded=1;" vertex="1" parent="1">
          <mxGeometry x="300" y="300" width="200" height="100" as="geometry" />
        </mxCell>
        <mxCell id="HVHrqrAjkbtWfn5iuY1D-8" value="" style="edgeStyle=orthogonalEdgeStyle;rounded=0;orthogonalLoop=1;jettySize=auto;html=1;" edge="1" parent="1" source="HVHrqrAjkbtWfn5iuY1D-5" target="HVHrqrAjkbtWfn5iuY1D-7">
          <mxGeometry relative="1" as="geometry" />
        </mxCell>
        <mxCell id="HVHrqrAjkbtWfn5iuY1D-5" value="Definir la variable cantidad_letras y asignarle la longitud de palabra_ingresada" style="rounded=1;whiteSpace=wrap;html=1;" vertex="1" parent="1">
          <mxGeometry x="325" y="450" width="150" height="75" as="geometry" />
        </mxCell>
        <mxCell id="HVHrqrAjkbtWfn5iuY1D-10" value="" style="edgeStyle=orthogonalEdgeStyle;rounded=0;orthogonalLoop=1;jettySize=auto;html=1;" edge="1" parent="1" source="HVHrqrAjkbtWfn5iuY1D-7" target="HVHrqrAjkbtWfn5iuY1D-9">
          <mxGeometry relative="1" as="geometry" />
        </mxCell>
        <mxCell id="HVHrqrAjkbtWfn5iuY1D-7" value="&lt;div&gt;&amp;nbsp; &amp;nbsp; Mostrar mensaje: &quot;La palabra ingresada tiene&quot; , cantidad_letras, &quot;letras&quot;.&lt;/div&gt;&lt;div&gt;&lt;br&gt;&lt;/div&gt;" style="shape=parallelogram;perimeter=parallelogramPerimeter;whiteSpace=wrap;html=1;fixedSize=1;rounded=1;" vertex="1" parent="1">
          <mxGeometry x="297.5" y="570" width="205" height="102.5" as="geometry" />
        </mxCell>
        <mxCell id="HVHrqrAjkbtWfn5iuY1D-9" value="Fin" style="ellipse;whiteSpace=wrap;html=1;rounded=1;" vertex="1" parent="1">
          <mxGeometry x="360" y="720" width="80" height="80" as="geometry" />
        </mxCell>
      </root>
    </mxGraphModel>
  </diagram>
</mxfile>
